<?xml version="1.0" encoding="UTF-8" standalone="no"?>
<svg
   version="1.0"
   width="241.76106pt"
   height="275.0369pt"
   viewBox="0 0 241.76107 275.0369"
   preserveAspectRatio="xMidYMid"
   id="svg146"
   xml:space="preserve"
   xmlns="http://www.w3.org/2000/svg"
   xmlns:svg="http://www.w3.org/2000/svg"><defs
     id="defs150" /><metadata
     id="metadata116">
Created by potrace 1.16, written by Peter Selinger 2001-2019
</metadata><g
     id="artifact"
     transform="matrix(0.76051951,0,0,0.77251452,-599.60617,-780.21304)"><desc
       id="desc1866">Artifacts</desc><path
       d="m 939.10405,1010.8447 c -2.6,0.7 -9.3,4.1 -15,7.6 -12.7,7.8 -66.8,39.7 -99.8,59 -25.7,14.9 -29.8,18 -33.3,24.5 -2.2,4 -2.2,4.1 -2.5,84.6 -0.2,77.1 -0.2,80.8 1.6,85 1.1,2.4 3.2,5.8 4.8,7.4 1.6,1.7 13.9,9.5 27.4,17.4 13.5,7.9 43.4,25.7 66.4,39.5 54.5,32.7 49.5,30.1 58.6,30.1 h 7.5 l 16.5,-9.4 c 9.1,-5.2 20.5,-11.9 25.3,-14.9 4.89995,-3 20.39995,-12.3 34.50005,-20.7 47,-27.9 64.7,-38.7 67.6,-41.4 1.6,-1.4 3.9,-4.9 5.2,-7.6 l 2.4,-5 v -78.6 c 0,-87.5 0.3,-84.1 -6.8,-91.8 -2.6,-2.8 -16.2,-11.4 -44.7,-28.2 -65.50005,-38.6 -90.50005,-53 -95.90005,-55.4 -6.6,-3 -13.9,-3.8 -19.8,-2.1 z m 52.1,88.2 c 21.50005,11.5 39.10005,21.1 39.10005,21.4 0,0.3 -2.8,2 -6.2,3.8 -3.5,1.7 -19.1001,10.2 -34.80005,18.7 -15.7,8.6 -31.7,17.2 -35.6,19.2 l -7.1,3.6 -34.9,-18.8 c -19.2,-10.3 -38,-20.5 -41.7,-22.7 l -6.8,-4 27.8,-15 c 50.2,-27.1 52.1,-28.1 56.9,-27.5 3,0.3 15.5,6.4 43.3,21.3 z m -96.9,62.1 c 21.2,11.3 39.3,21.3 40.3,22.2 1.6,1.6 1.7,5.2 1.5,55.3 l -0.3,53.6 -28,-15.4 c -15.4,-8.5 -34.4,-18.9 -42.3,-23.1 -10.5,-5.6 -14.7,-8.4 -15.8,-10.5 -1.2,-2.4 -1.4,-10.4 -1.2,-51.9 0.3,-47.5 0.4,-49.1 2.3,-50.5 1.1,-0.8 2.6,-1.2 3.5,-0.9 0.8,0.3 18.8,9.9 40,21.2 z m 148.00005,-19.7 c 1.9,1.9 2,3.3 2,50.5 0,39.8 -0.3,49.1 -1.4,51.3 -1,2 -6.5,5.4 -19.8,12.6 -10,5.5 -29.00005,15.9 -42.00005,23.2 l -23.8,13.2 v -53.6 c 0,-29.5 0.4,-54.2 0.8,-54.8 0.7,-1.2 80.10005,-44.4 81.50005,-44.4 0.4,0 1.6,0.9 2.7,2 z"
       id="path680"
       style="fill:#006680;stroke:none;stroke-width:0.1" /><path
       d="m 990.50405,1200.6447 c -0.8,0.8 -1.2,5.3 -1.2,13.5 v 12.2 l -7.7,0.3 c -6.4,0.2 -7.8,0.6 -7.8,1.9 0,1.7 22.6,26.3 25.6,27.9 1.39995,0.8 3.99995,-1.6 13.99995,-12.6 6.8001,-7.4 12.6001,-14 12.8001,-14.6 0.6,-1.9 -2.3001,-2.8 -9.1,-2.8 h -6.8001 v -12.3 c 0,-8.2 -0.4,-12.7 -1.1999,-13.5 -1.6001,-1.6 -17.00005,-1.6 -18.60005,0 z"
       id="path682"
       style="fill:#006680;stroke:none;stroke-width:0.1" /></g></svg>
