<?xml version="1.0" encoding="UTF-8" standalone="no"?>
<svg
   version="1.0"
   width="241.76109pt"
   height="275.0369pt"
   viewBox="0 0 241.7611 275.0369"
   preserveAspectRatio="xMidYMid"
   id="svg146"
   xml:space="preserve"
   xmlns="http://www.w3.org/2000/svg"
   xmlns:svg="http://www.w3.org/2000/svg"><defs
     id="defs150" /><metadata
     id="metadata116">
Created by potrace 1.16, written by Peter Selinger 2001-2019
</metadata><path
     d="m 113.65843,0.8383326 c -1.67255,0.54131 -12.77224,6.88239 -24.708206,14.1514304 -21.28708,12.83681 -55.19434,33.25199 -73.59246,44.23288 -5.24574,3.17054 -10.1113602,6.72773 -11.1757202,8.11968 -4.33344,5.79976 -4.18139000151,2.86122 -4.18139000151,69.210537 0,59.23495 0.0760000015,61.24554 1.52051000151,65.26671 1.97666,5.49045 4.40947,7.73302 13.7605702,13.37813 21.21106,12.68216 61.65649,36.80918 72.14798,43.15026 6.46215,3.86651 14.596846,8.81565 18.094016,10.98089 12.69622,8.11968 18.3221,7.73303 34.36343,-2.16524 3.11704,-1.93326 13.38045,-8.11968 22.80755,-13.76478 43.33448,-25.98296 71.00768,-43.15027 73.13638,-45.23818 1.2924,-1.31461 3.1931,-4.0985 4.1814,-6.26375 l 1.7486,-4.02117 -0.1521,-62.09617 c -0.228,-62.018827 -0.228,-62.173487 -1.9006,-65.266697 -2.3568,-4.56249 -4.7896,-6.49574 -16.1934,-13.14614 -5.6259,-3.3252 -17.2577,-10.28492 -25.8486,-15.46605 -18.7782,-11.36754 -63.86125,-37.9691304 -67.89059,-40.0570504 -3.64921,-1.93326 -11.93598,-2.47457 -16.11737,-1.00529 z m 31.8546,59.6216004 c 14.4448,2.70656 25.39248,7.34637 31.85466,13.37813 4.3334,4.0985 5.8539,7.19171 5.8539,11.75419 0,10.59424 -13.83658,20.028527 -36.18805,24.745667 -31.09435,6.57307 -67.358406,0.85063 -82.563456,-12.991477 -4.63754,-4.33049 -6.006,-6.95972 -6.08202,-11.83152 -0.076,-11.90885 16.42146,-22.19377 41.661846,-25.82829 9.95931,-1.46928 36.03599,-1.0053 45.46312,0.7733 z m -54.586156,82.897987 15.281076,15.8527 -4.25741,-0.54131 c -15.661206,-1.85593 -33.451116,-9.66628 -39.913266,-17.47663 -4.40947,-5.25846 -5.01767,-7.73302 -5.01767,-20.33785 v -11.5222 l 9.35111,9.04763 c 5.09369,5.02647 16.11736,16.23935 24.55616,24.97766 z m 92.294716,-7.96501 c -2.6609,9.27963 -22.57953,20.02853 -41.4338,22.5031 -2.05268,0.30932 -4.33344,0.69597 -5.01766,0.85063 -0.68423,0.15466 9.57918,-10.59424 22.80758,-24.0497 l 24.02398,-24.35902 0.2281,11.05822 c 0.1521,6.72773 -0.076,12.14085 -0.6082,13.99677 z m -78.30607,-6.49574 c 11.0997,1.31462 31.01833,0.69597 39.53316,-1.31461 1.36845,-0.30932 -1.59653,3.17054 -10.64354,12.45016 -6.9183,7.03705 -12.69622,12.83682 -12.9243,12.83682 -0.22807,0 -6.23408,-5.72244 -13.30443,-12.75949 -9.275076,-9.12496 -12.392116,-12.68215 -11.023666,-12.37283 1.06436,0.23199 4.789596,0.69597 8.362776,1.15995 z M 64.926234,162.9998 c 7.5265,5.02646 24.48014,10.67157 32.23472,10.7489 1.29243,0 2.43281,0.23199 2.43281,0.46398 0,0.46398 -2.58486,3.24787 -16.42146,18.01794 l -5.47382,5.79977 -4.25742,-2.16525 c -6.08202,-3.01587 -11.47982,-7.57836 -13.91262,-11.83152 -2.05269,-3.55719 -2.12871,-4.17583 -2.35679,-15.6207 l -0.3041,-11.83153 1.82461,1.70127 c 0.9123,0.92796 3.72524,3.09321 6.23407,4.71714 z m 118.675456,15.07939 c -0.9123,6.72773 -6.4622,12.75949 -15.96534,17.3993 l -4.56152,2.24258 -11.17567,-11.36754 -11.25175,-11.44488 8.21073,-1.62393 c 4.4855,-0.92796 11.17572,-2.78389 14.901,-4.17583 6.38612,-2.39724 16.49745,-8.50633 18.77825,-11.29021 0.9123,-1.15996 1.0643,-0.0773 1.2924,7.88768 0.1521,5.02646 0,10.67157 -0.2281,12.37283 z m -44.39876,16.39401 c 5.77793,5.64511 7.67856,7.96501 6.84228,8.27433 -8.51483,2.62923 -33.37511,3.09321 -44.85492,0.77331 l -7.222396,-1.39195 13.152366,-13.14614 13.15238,-13.14613 5.3978,5.33578 c 3.04101,2.93855 9.12303,8.89298 13.53249,13.3008 z"
     id="vector"
     style="fill:#d5f6ff;fill-opacity:1;stroke:none;stroke-width:0.076675"><desc
       id="desc1862">Vector</desc></path></svg>
