<?xml version="1.0" encoding="UTF-8" standalone="no"?>
<svg
   version="1.0"
   width="239.90749pt"
   height="274.51669pt"
   viewBox="0 0 239.90749 274.51669"
   preserveAspectRatio="xMidYMid"
   id="svg146"
   xml:space="preserve"
   xmlns="http://www.w3.org/2000/svg"
   xmlns:svg="http://www.w3.org/2000/svg"><defs
     id="defs150" /><metadata
     id="metadata116">
Created by potrace 1.16, written by Peter Selinger 2001-2019
</metadata><g
     id="docs"
     transform="translate(-539.09252,-395.44602)"
     style="fill:#d5f6ff;fill-opacity:1"><desc
       id="desc1854">Documentation</desc><path
       d="m 654.1,396.1 c -1.8,0.6 -18.3,10.1 -36.5,21.1 -18.2,11.1 -42,25.6 -53,32.2 -15.7,9.5 -20.4,12.8 -22.5,16 l -2.6,4 -0.3,61.5 c -0.3,69.6 -0.5,67.3 7.1,73.4 2.3,1.8 10.3,6.9 17.7,11.4 7.4,4.4 19.6,11.8 27,16.3 7.4,4.6 21.8,13.3 32,19.5 10.2,6.1 20.8,12.6 23.6,14.4 5.7,3.6 14.2,5.1 19.2,3.3 1.7,-0.6 11.3,-6.2 21.4,-12.4 26.9,-16.8 65.9,-40.7 77.3,-47.6 8.2,-4.9 10.4,-6.7 12.2,-10.2 l 2.3,-4.3 v -62.6 -62.6 l -2.3,-3.9 c -1.9,-3.4 -5.8,-6.2 -27.2,-19.1 -13.8,-8.4 -36.2,-22.1 -50,-30.5 -13.7,-8.4 -26.8,-16.4 -29.1,-17.7 -4.8,-2.7 -11.5,-3.6 -16.3,-2.2 z m 57.1,60.9 c 2,0.6 5,2.6 6.7,4.6 l 3.1,3.5 v 62.3 c 0,68.8 0.1,68.1 -6.3,74.6 -5.9,6.1 -5,6 -58.2,6 -41.2,0 -49,-0.2 -51.5,-1.5 -6.3,-3.3 -6,0.7 -6,-73.7 v -67.7 l 3.1,-3.6 c 1.7,-1.9 4.5,-3.9 6.3,-4.4 4.4,-1.3 98.2,-1.4 102.8,-0.1 z"
       id="path132"
       style="fill:#d5f6ff;fill-opacity:1;stroke:none;stroke-width:0.1" /><path
       d="m 618.7,483.7 c -0.4,0.3 -0.7,3.2 -0.7,6.4 0,5.2 0.2,5.9 2.3,6.4 1.2,0.3 19.5,0.4 40.7,0.3 l 38.5,-0.3 0.5,-5.8 c 0.3,-3.2 0.1,-6.2 -0.4,-6.7 -1.1,-1.1 -79.9,-1.4 -80.9,-0.3 z"
       id="path134"
       style="fill:#d5f6ff;fill-opacity:1;stroke:none;stroke-width:0.1" /><path
       d="m 618.7,517.7 c -0.4,0.3 -0.7,3.2 -0.7,6.4 0,4.3 0.4,5.8 1.6,6.3 0.9,0.3 14.5,0.6 30.3,0.6 21,0 29,-0.3 29.9,-1.2 1.6,-1.6 1.6,-10 0,-11.6 -0.9,-0.9 -9.1,-1.2 -30.8,-1.2 -16.3,0 -30,0.3 -30.3,0.7 z"
       id="path136"
       style="fill:#d5f6ff;fill-opacity:1;stroke:none;stroke-width:0.1" /><path
       d="m 619.2,551.9 c -0.9,0.5 -1.2,2.6 -1,6.7 l 0.3,5.9 H 659 699.5 V 558 551.5 L 660,551.3 c -21.7,-0.2 -40.1,0.1 -40.8,0.6 z"
       id="path138"
       style="fill:#d5f6ff;fill-opacity:1;stroke:none;stroke-width:0.1" /></g></svg>
