<?xml version="1.0" encoding="UTF-8" standalone="no"?>
<svg
   version="1.0"
   width="241.76106pt"
   height="275.0369pt"
   viewBox="0 0 241.76107 275.0369"
   preserveAspectRatio="xMidYMid"
   id="svg146"
   xml:space="preserve"
   xmlns="http://www.w3.org/2000/svg"
   xmlns:svg="http://www.w3.org/2000/svg"><defs
     id="defs150" /><metadata
     id="metadata116">
Created by potrace 1.16, written by Peter Selinger 2001-2019
</metadata><g
     transform="matrix(0.04164704,0,0,-0.04264483,-92.664664,356.10497)"
     fill="#000000"
     stroke="none"
     id="devops"
     style="fill:#006680"><desc
       id="desc1858">DevOps</desc><path
       d="m 4983,8330 c -29,-10 -427,-245 -885,-523 -458,-277 -977,-591 -1153,-697 -555,-334 -560,-337 -614,-395 -29,-30 -64,-81 -79,-112 l -27,-58 V 5115 3685 l 33,-67 c 35,-72 118,-157 188,-194 70,-36 912,-537 1384,-822 768,-464 1052,-633 1120,-665 55,-27 79,-32 160,-35 81,-3 104,0 160,20 61,23 476,268 1785,1057 700,422 796,481 832,512 54,46 102,118 123,185 20,65 20,88 20,1438 0,887 -4,1386 -11,1415 -16,69 -59,148 -109,199 -35,35 -252,171 -836,522 -726,436 -1571,945 -1704,1027 -117,72 -276,94 -387,53 z m 503,-1434 c 645,-134 1182,-637 1347,-1262 l 24,-89 159,-5 c 173,-5 194,-11 220,-62 33,-63 20,-88 -174,-351 l -180,-243 -17,-99 c -62,-364 -224,-675 -490,-940 -157,-157 -274,-242 -460,-335 -369,-184 -756,-234 -1163,-150 -602,124 -1123,596 -1303,1179 l -34,111 h -155 c -179,0 -211,10 -245,72 -19,35 -19,40 -4,80 8,24 92,147 185,273 l 170,230 12,91 c 34,262 146,539 312,776 125,178 355,393 535,500 221,131 469,216 720,247 138,17 402,5 541,-23 z"
       id="path390"
       style="fill:#006680" /><path
       d="m 5000,6449 c -517,-64 -935,-389 -1105,-859 -32,-89 -67,-249 -58,-264 4,-6 89,-125 190,-264 163,-226 183,-258 183,-293 0,-31 -7,-47 -34,-77 l -34,-37 -127,-3 c -145,-4 -138,8 -79,-121 54,-118 160,-267 259,-366 399,-400 1011,-498 1516,-244 350,176 611,507 694,881 l 17,77 -164,228 c -90,125 -172,239 -181,253 -10,14 -17,44 -17,68 0,37 6,50 34,78 l 34,34 h 126 c 69,0 126,4 126,8 0,20 -40,123 -75,192 -63,125 -133,220 -244,330 -195,194 -420,313 -689,364 -106,20 -277,27 -372,15 z"
       id="path392"
       style="fill:#006680" /></g></svg>
