<?xml version="1.0" encoding="UTF-8" standalone="no"?>
<svg
   version="1.0"
   width="241.76108pt"
   height="275.0369pt"
   viewBox="0 0 241.76108 275.0369"
   preserveAspectRatio="xMidYMid"
   id="svg146"
   xml:space="preserve"
   xmlns="http://www.w3.org/2000/svg"
   xmlns:svg="http://www.w3.org/2000/svg"><defs
     id="defs150" /><metadata
     id="metadata116">
Created by potrace 1.16, written by Peter Selinger 2001-2019
</metadata><path
     d="M 114.6464,0.97076696 C 112.74577,1.512067 110.23694,2.517337 109.17259,3.213297 c -1.06435,0.69596 -10.947619,6.65026 -21.895229,13.2232 -69.10684,41.06151 -80.20651,47.7891 -82.48727,50.41827 -4.94163002,5.645 -4.78958001589,3.47979 -4.78958001589,70.987703 0,57.91916 0.0759999959,61.32162 1.44448001589,64.33744 1.74858,3.94376 5.92996,8.1195 11.47979,11.44464 2.28076,1.39191 13.45645,8.1195 24.70817,14.92442 11.32774,6.80492 27.52109,16.54833 36.11193,21.65202 8.59084,5.1037 20.90691,12.44992 27.445069,16.31635 13.53248,8.11951 17.86591,9.51142 24.4801,7.96485 2.7369,-0.61863 11.17569,-5.33568 27.90122,-15.46573 13.15234,-7.96485 34.21127,-20.72408 46.75547,-28.30228 12.5441,-7.57821 25.6204,-15.46573 29.1176,-17.55361 3.4211,-2.08787 7.0703,-4.94903 8.1347,-6.34095 4.33338,-5.79964 4.18138,-2.86116 4.18138,-69.20913 0,-59.233753 -0.076,-61.244293 -1.52048,-65.265383 -0.8363,-2.24253 -2.4328,-5.02636 -3.6492,-6.10896 -1.1404,-1.08261 -11.0997,-7.50088 -22.1994,-14.15115 -11.0996,-6.72759 -22.5034,-13.68717 -25.4684,-15.46573 -27.90121,-17.08963 -59.52766,-35.1072 -62.87277,-35.95782004 -4.25741,-0.92794 -6.99431,-0.92794 -11.40377,0.30932 z M 182.38479,56.183417 c 5.39775,4.02109 6.84225,10.43937 3.80126,16.62566 -3.95331,7.81019 -39.76114,71.451673 -40.97755,72.688933 -0.3041,0.38664 -5.85393,-3.47979 -12.24004,-8.50615 -6.46214,-5.10369 -15.7372,-12.29526 -20.60281,-16.00703 -4.94164,-3.71178 -8.97097,-6.88225 -8.97097,-6.95958 0,-0.15466 7.98264,-7.19157 17.71386,-15.620393 9.65519,-8.42882 23.64381,-20.8014 30.94222,-27.37434 14.29273,-12.91388 17.18168,-15.23374 20.37474,-16.31634 2.96498,-0.92795 7.67854,-0.23199 9.95929,1.46924 z M 95.792171,129.56831 c 1.06435,0.69595 9.807239,7.26889 19.462429,14.69244 l 17.56181,13.37786 -0.98833,6.03163 c -0.53218,3.2478 -1.5205,10.98067 -2.28075,17.08963 -0.9123,7.88752 -1.67256,11.52197 -2.58486,12.44991 -0.68422,0.69596 -3.57318,2.01055 -6.46213,3.01582 -2.96498,1.00527 -15.20503,5.64499 -27.369049,10.28471 -20.83088,7.96485 -22.19934,8.42882 -24.86022,7.57821 -1.59652,-0.46397 -2.88895,-1.00528 -2.88895,-1.15993 0,-0.23199 2.66088,-3.78911 5.92996,-7.96485 3.19305,-4.09842 8.51481,-11.21266 11.70787,-15.69772 5.54983,-7.81019 6.08201,-8.27416 9.04699,-8.66081 3.57318,-0.46397 6.46214,-2.86116 7.982639,-6.4956 1.90063,-4.40774 1.36845,-7.03691 -1.900629,-10.36204 -2.58485,-2.7065 -3.34511,-3.01582 -6.61419,-3.01582 -2.4328,0.0773 -4.2574,0.5413 -5.39778,1.46925 -2.66088,2.24253 -4.78958,6.41827 -4.78958,9.43409 0,2.47452 -1.59653,4.94903 -11.7839,18.55888 -6.46213,8.6608 -12.24004,15.77504 -12.77222,15.77504 -0.45615,0 -1.29243,-0.85062 -1.8246,-1.93322 -0.98833,-2.1652 0.22807,-14.22847 3.87728,-36.7311 0.98833,-6.41828 2.28075,-15.00176 2.81293,-19.17751 0.6082,-4.94903 1.36845,-7.88752 2.1287,-8.50615 0.68423,-0.61863 4.33343,-2.24253 8.05867,-3.63445 3.80125,-1.46924 9.42711,-3.7891 12.54414,-5.18101 6.53816,-2.78384 8.81892,-3.09315 11.40377,-1.23726 z m 93.130769,84.13356 c 2.2808,2.31986 2.3568,4.17575 0.3041,6.88225 l -1.5205,2.01055 h -49.9485 c -43.258299,0 -49.720429,-0.15466 -48.351979,-1.0826 0.83628,-0.61863 5.16971,-3.01582 9.65519,-5.41301 l 8.134689,-4.3304 h 39.91319 39.98922 z"
     id="design"
     style="fill:#d5f6ff;fill-opacity:1;stroke:none;stroke-width:0.0766741"><desc
       id="desc1860">Design</desc></path></svg>
