<svg xmlns="http://www.w3.org/2000/svg" width="240pt" height="271.98pt" viewBox="0 0 240 271.98"><defs><mask id="tk-char-number-40-symbol" maskUnits="userSpaceOnUse" x="0" y="0" width="240" height="271.98"><rect width="240" height="271.98" fill="#fff"/><g transform="translate(120 135.99)"><path d="M-28.35 52.5Q-31.5 52.5 -33.6 50.33Q-35.7 48.15 -35.7 44.85V22.65H-76.5Q-79.2 22.65 -81.6 20.48Q-84 18.3 -84 15.3Q-84 12.45 -82.05 10.2L-34.35 -49.5Q-33.3 -51 -31.65 -51.75Q-30 -52.5 -28.2 -52.5Q-24.9 -52.5 -22.8 -50.32Q-20.7 -48.15 -20.7 -44.85V8.85H-11.55Q-8.55 8.85 -6.52 10.88Q-4.5 12.9 -4.5 15.9Q-4.5 18.75 -6.52 20.7Q-8.55 22.65 -11.55 22.65H-20.7V44.85Q-20.7 48.15 -22.95 50.33Q-25.2 52.5 -28.35 52.5ZM-35.7 8.85V-27.15L-63.9 8.85ZM45.15 54Q32.55 54 23.85 47.02Q15.15 40.05 10.73 27.82Q6.3 15.6 6.3 0Q6.3 -15.75 10.73 -27.98Q15.15 -40.2 23.85 -47.1Q32.55 -54 45.15 -54Q57.75 -54 66.38 -47.1Q75 -40.2 79.5 -27.98Q84 -15.75 84 0Q84 15.6 79.5 27.82Q75 40.05 66.38 47.02Q57.75 54 45.15 54ZM45.15 38.85Q52.2 38.85 57.23 34.35Q62.25 29.85 65.03 21.15Q67.8 12.45 67.8 0Q67.8 -12.6 65.03 -21.3Q62.25 -30 57.23 -34.5Q52.2 -39 45.15 -39Q38.1 -39 33 -34.5Q27.9 -30 25.2 -21.3Q22.5 -12.6 22.5 0Q22.5 12.45 25.2 21.15Q27.9 29.85 33 34.35Q38.1 38.85 45.15 38.85Z" fill="#000"/></g></mask></defs><path d="M8.31 61.91L111.69 2.23A16.63 16.63 0 0 1 128.31 2.23L231.69 61.91A16.63 16.63 0 0 1 240 76.31L240 195.67A16.63 16.63 0 0 1 231.69 210.07L128.31 269.76A16.63 16.63 0 0 1 111.69 269.76L8.31 210.07A16.63 16.63 0 0 1 0 195.67L0 76.31A16.63 16.63 0 0 1 8.31 61.91Z" fill="#006680" mask="url(#tk-char-number-40-symbol)"/></svg>
