<svg xmlns="http://www.w3.org/2000/svg" width="240pt" height="271.98pt" viewBox="0 0 240 271.98"><defs><mask id="tk-char-number-66-symbol" maskUnits="userSpaceOnUse" x="0" y="0" width="240" height="271.98"><rect width="240" height="271.98" fill="#fff"/><g transform="translate(120 135.99)"><path d="M-40.73 53.92Q-49.12 53.92 -55.65 50.62Q-62.17 47.32 -66.6 41.62Q-71.03 35.92 -73.35 28.8Q-75.67 21.67 -75.67 14.17Q-75.67 8.32 -74.32 0.75Q-72.97 -6.83 -69.82 -15Q-66.67 -23.17 -61.5 -30.67Q-56.33 -38.17 -48.6 -44.25Q-40.88 -50.33 -30.23 -53.47Q-28.73 -53.92 -27.38 -53.92Q-24.38 -53.92 -22.05 -52.35Q-19.73 -50.78 -19.73 -46.72Q-19.73 -44.03 -21.53 -42Q-23.33 -39.97 -26.33 -39.08Q-31.73 -37.28 -37.12 -33.68Q-42.52 -30.08 -47.17 -25.12Q-51.83 -20.17 -54.98 -14.17Q-56.78 -10.73 -58.12 -7.12Q-57.98 -7.27 -57.67 -7.58Q-54.23 -10.73 -49.42 -12.9Q-44.62 -15.08 -38.48 -15.08Q-32.33 -15.08 -26.63 -12.38Q-20.93 -9.67 -16.35 -4.88Q-11.78 -0.08 -9.15 6.22Q-6.53 12.52 -6.53 19.57Q-6.53 28.87 -11.1 36.75Q-15.67 44.62 -23.4 49.27Q-31.12 53.92 -40.73 53.92ZM-40.88 39.97Q-35.33 39.97 -30.98 37.35Q-26.62 34.72 -24.08 30.07Q-21.53 25.42 -21.53 19.57Q-21.53 13.73 -23.93 9.07Q-26.33 4.42 -30.6 1.57Q-34.88 -1.27 -40.58 -1.27Q-46.43 -1.27 -50.92 1.57Q-55.42 4.42 -57.98 9.15Q-60.53 13.88 -60.53 19.73Q-60.53 25.12 -57.98 29.85Q-55.42 34.58 -51 37.27Q-46.58 39.97 -40.88 39.97ZM41.48 53.92Q33.08 53.92 26.55 50.62Q20.03 47.32 15.6 41.62Q11.18 35.92 8.85 28.8Q6.53 21.67 6.53 14.17Q6.53 8.32 7.88 0.75Q9.23 -6.83 12.38 -15Q15.53 -23.17 20.7 -30.67Q25.88 -38.17 33.6 -44.25Q41.33 -50.33 51.98 -53.47Q53.48 -53.92 54.83 -53.92Q57.83 -53.92 60.15 -52.35Q62.48 -50.78 62.48 -46.72Q62.48 -44.03 60.67 -42Q58.88 -39.97 55.88 -39.08Q50.48 -37.28 45.08 -33.68Q39.68 -30.08 35.03 -25.12Q30.38 -20.17 27.23 -14.17Q25.43 -10.73 24.08 -7.12Q24.23 -7.27 24.53 -7.58Q27.98 -10.73 32.78 -12.9Q37.58 -15.08 43.73 -15.08Q49.88 -15.08 55.58 -12.38Q61.27 -9.67 65.85 -4.88Q70.42 -0.08 73.05 6.22Q75.67 12.52 75.67 19.57Q75.67 28.87 71.1 36.75Q66.53 44.62 58.8 49.27Q51.08 53.92 41.48 53.92ZM41.33 39.97Q46.88 39.97 51.23 37.35Q55.58 34.72 58.12 30.07Q60.67 25.42 60.67 19.57Q60.67 13.73 58.27 9.07Q55.88 4.42 51.6 1.57Q47.33 -1.27 41.62 -1.27Q35.77 -1.27 31.27 1.57Q26.78 4.42 24.23 9.15Q21.68 13.88 21.68 19.73Q21.68 25.12 24.23 29.85Q26.78 34.58 31.2 37.27Q35.62 39.97 41.33 39.97Z" fill="#000"/></g></mask></defs><path d="M8.31 61.91L111.69 2.23A16.63 16.63 0 0 1 128.31 2.23L231.69 61.91A16.63 16.63 0 0 1 240 76.31L240 195.67A16.63 16.63 0 0 1 231.69 210.07L128.31 269.76A16.63 16.63 0 0 1 111.69 269.76L8.31 210.07A16.63 16.63 0 0 1 0 195.67L0 76.31A16.63 16.63 0 0 1 8.31 61.91Z" fill="#006680" mask="url(#tk-char-number-66-symbol)"/></svg>
