<svg xmlns="http://www.w3.org/2000/svg" width="240pt" height="271.98pt" viewBox="0 0 240 271.98"><defs><mask id="tk-char-number-47-symbol" maskUnits="userSpaceOnUse" x="0" y="0" width="240" height="271.98"><rect width="240" height="271.98" fill="#fff"/><g transform="translate(120 135.99)"><path d="M-24.45 52.2Q-27.6 52.2 -29.7 50.02Q-31.8 47.85 -31.8 44.55V22.35H-72.6Q-75.3 22.35 -77.7 20.17Q-80.1 18 -80.1 15Q-80.1 12.15 -78.15 9.9L-30.45 -49.8Q-29.4 -51.3 -27.75 -52.05Q-26.1 -52.8 -24.3 -52.8Q-21 -52.8 -18.9 -50.62Q-16.8 -48.45 -16.8 -45.15V8.55H-7.65Q-4.65 8.55 -2.63 10.57Q-0.6 12.6 -0.6 15.6Q-0.6 18.45 -2.63 20.4Q-4.65 22.35 -7.65 22.35H-16.8V44.55Q-16.8 47.85 -19.05 50.02Q-21.3 52.2 -24.45 52.2ZM-31.8 8.55V-27.45L-60 8.55ZM32.4 52.8Q29.25 52.8 26.93 50.77Q24.6 48.75 24.6 45.6Q24.6 43.95 25.35 42.15L61.65 -38.1H18.9Q15.9 -38.1 13.88 -40.12Q11.85 -42.15 11.85 -45.15Q11.85 -48 13.88 -49.95Q15.9 -51.9 18.9 -51.9H72.15Q75.45 -51.9 77.78 -49.88Q80.1 -47.85 80.1 -44.7Q80.1 -42.9 79.35 -41.25L39.3 48Q38.4 50.25 36.45 51.52Q34.5 52.8 32.4 52.8Z" fill="#000"/></g></mask></defs><path d="M8.31 61.91L111.69 2.23A16.63 16.63 0 0 1 128.31 2.23L231.69 61.91A16.63 16.63 0 0 1 240 76.31L240 195.67A16.63 16.63 0 0 1 231.69 210.07L128.31 269.76A16.63 16.63 0 0 1 111.69 269.76L8.31 210.07A16.63 16.63 0 0 1 0 195.67L0 76.31A16.63 16.63 0 0 1 8.31 61.91Z" fill="#006680" mask="url(#tk-char-number-47-symbol)"/></svg>
