<svg xmlns="http://www.w3.org/2000/svg" width="240pt" height="271.98pt" viewBox="0 0 240 271.98"><defs><mask id="tk-char-number-33-symbol" maskUnits="userSpaceOnUse" x="0" y="0" width="240" height="271.98"><rect width="240" height="271.98" fill="#fff"/><g transform="translate(120 135.99)"><path d="M-63.9 32.17Q-62.7 32.17 -61.35 32.55Q-60 32.92 -58.35 34.12Q-55.65 36.52 -51.83 38.1Q-48 39.67 -43.05 39.67Q-37.5 39.67 -32.7 37.05Q-27.9 34.42 -24.9 29.62Q-21.9 24.82 -21.9 18.23Q-21.9 11.48 -24.75 7.2Q-27.6 2.93 -32.1 0.75Q-36.6 -1.42 -41.55 -1.42Q-44.4 -1.42 -46.35 -0.9Q-48.3 -0.38 -50.1 0.15Q-51.9 0.68 -54 0.68Q-56.85 0.68 -58.5 -1.35Q-60.15 -3.38 -60.15 -6.22Q-60.15 -8.02 -59.4 -9.37Q-58.65 -10.72 -57.3 -12.38L-32.4 -39.08H-66Q-69 -39.08 -71.03 -41.1Q-73.05 -43.12 -73.05 -46.12Q-73.05 -48.97 -71.03 -50.92Q-69 -52.88 -66 -52.88H-18.6Q-14.7 -52.88 -12.83 -50.62Q-10.95 -48.38 -10.95 -45.38Q-10.95 -43.72 -11.78 -42.22Q-12.6 -40.72 -13.8 -39.38L-36.3 -15.22Q-28.05 -15.08 -21.3 -10.88Q-14.55 -6.52 -10.73 0.75Q-6.9 8.02 -6.9 17.18Q-6.9 28.12 -11.85 36.15Q-16.8 44.17 -25.58 48.52Q-34.35 52.88 -45.75 52.88Q-51.45 52.88 -57.08 51.3Q-62.7 49.73 -66.75 46.73Q-69.3 45.23 -70.2 43.5Q-71.1 41.77 -71.1 40.12Q-71.1 37.27 -69.07 34.72Q-67.05 32.17 -63.9 32.17ZM16.05 32.17Q17.25 32.17 18.6 32.55Q19.95 32.92 21.6 34.12Q24.3 36.52 28.12 38.1Q31.95 39.67 36.9 39.67Q42.45 39.67 47.25 37.05Q52.05 34.42 55.05 29.62Q58.05 24.82 58.05 18.23Q58.05 11.48 55.2 7.2Q52.35 2.93 47.85 0.75Q43.35 -1.42 38.4 -1.42Q35.55 -1.42 33.6 -0.9Q31.65 -0.38 29.85 0.15Q28.05 0.68 25.95 0.68Q23.1 0.68 21.45 -1.35Q19.8 -3.38 19.8 -6.22Q19.8 -8.02 20.55 -9.37Q21.3 -10.72 22.65 -12.38L47.55 -39.08H13.95Q10.95 -39.08 8.93 -41.1Q6.9 -43.12 6.9 -46.12Q6.9 -48.97 8.93 -50.92Q10.95 -52.88 13.95 -52.88H61.35Q65.25 -52.88 67.12 -50.62Q69 -48.38 69 -45.38Q69 -43.72 68.17 -42.22Q67.35 -40.72 66.15 -39.38L43.65 -15.22Q51.9 -15.08 58.65 -10.88Q65.4 -6.52 69.22 0.75Q73.05 8.02 73.05 17.18Q73.05 28.12 68.1 36.15Q63.15 44.17 54.38 48.52Q45.6 52.88 34.2 52.88Q28.5 52.88 22.88 51.3Q17.25 49.73 13.2 46.73Q10.65 45.23 9.75 43.5Q8.85 41.77 8.85 40.12Q8.85 37.27 10.88 34.72Q12.9 32.17 16.05 32.17Z" fill="#000"/></g></mask></defs><path d="M8.31 61.91L111.69 2.23A16.63 16.63 0 0 1 128.31 2.23L231.69 61.91A16.63 16.63 0 0 1 240 76.31L240 195.67A16.63 16.63 0 0 1 231.69 210.07L128.31 269.76A16.63 16.63 0 0 1 111.69 269.76L8.31 210.07A16.63 16.63 0 0 1 0 195.67L0 76.31A16.63 16.63 0 0 1 8.31 61.91Z" fill="#006680" mask="url(#tk-char-number-33-symbol)"/></svg>
