<svg xmlns="http://www.w3.org/2000/svg" width="240pt" height="271.98pt" viewBox="0 0 240 271.98"><defs><mask id="tk-char-upper-n-symbol" maskUnits="userSpaceOnUse" x="0" y="0" width="240" height="271.98"><rect width="240" height="271.98" fill="#fff"/><g transform="translate(120 135.99)"><path d="M41.14 -60Q44.57 -60 46.71 -57.69Q48.86 -55.37 48.86 -51.94V51.26Q48.86 55.03 46.37 57.51Q43.89 60 40.11 60Q38.4 60 36.43 59.31Q34.46 58.63 33.43 57.43L-33.09 -28.8V52.11Q-33.09 55.37 -35.31 57.69Q-37.54 60 -40.97 60Q-44.57 60 -46.71 57.69Q-48.86 55.37 -48.86 52.11V-51.26Q-48.86 -55.2 -46.29 -57.6Q-43.71 -60 -40.11 -60Q-38.23 -60 -36.09 -59.23Q-33.94 -58.46 -32.91 -56.91L33.26 29.14V-51.94Q33.26 -55.37 35.49 -57.69Q37.71 -60 41.14 -60Z" fill="#000"/></g></mask></defs><path d="M8.31 61.91L111.69 2.23A16.63 16.63 0 0 1 128.31 2.23L231.69 61.91A16.63 16.63 0 0 1 240 76.31L240 195.67A16.63 16.63 0 0 1 231.69 210.07L128.31 269.76A16.63 16.63 0 0 1 111.69 269.76L8.31 210.07A16.63 16.63 0 0 1 0 195.67L0 76.31A16.63 16.63 0 0 1 8.31 61.91Z" fill="#006680" mask="url(#tk-char-upper-n-symbol)"/></svg>
